PathFileType	4	(X/Y/Z)	T1_P2_Vision_NoMovement_4_0-734.trc
DataRate	CameraRate	NumFrames	NumMarkers	Units	OrigDataRate	OrigDataStartFrame	OrigNumFrames
60	60	4	27	m	60	367	734
Frame#	Time	RHip			RKnee			RAnkle			RBigToe			RSmallToe			RHeel			LHip			LKnee			LAnkle			LBigToe			LSmallToe			LHeel			Neck			Head			Nose			RShoulder			RElbow			RWrist			RThumb			RIndex			RPinky			LShoulder			LElbow			LWrist			LThumb			LIndex			LPinky		
		X1	Y1	Z1	X2	Y2	Z2	X3	Y3	Z3	X4	Y4	Z4	X5	Y5	Z5	X6	Y6	Z6	X7	Y7	Z7	X8	Y8	Z8	X9	Y9	Z9	X10	Y10	Z10	X11	Y11	Z11	X12	Y12	Z12	X13	Y13	Z13	X14	Y14	Z14	X15	Y15	Z15	X16	Y16	Z16	X17	Y17	Z17	X18	Y18	Z18	X19	Y19	Z19	X20	Y20	Z20	X21	Y21	Z21	X22	Y22	Z22	X23	Y23	Z23	X24	Y24	Z24	X25	Y25	Z25	X26	Y26	Z26	X27	Y27	Z27
368	6.133333333333334	452.34864381686475	3683.081259075442	663.6986008213435	845.691244169446	3701.6468254066017	650.4415428916423	1207.5153968773852	3725.356006864283	689.7744934219497	1297.2440554807165	3660.041776937278	661.9484938161482	1295.908018047598	3708.962691593304	610.9433548687141	1261.936100615996	3779.7754875277187	742.1896920549312	465.0926966099455	3644.208896898915	882.0330301966936	859.635787763728	3630.8600570399562	864.4245437203144	1233.4629372498498	3679.3711631053843	855.5147841609846	1309.942190246502	3562.5585839957075	811.9260900888116	1282.9210448852814	3537.27975474962	844.336840878171	1265.7504599641227	3728.8410613641067	864.1446430480131	-129.78291550221374	3658.3290186984223	797.7681927236689	-389.544728697757	3606.8131557247943	768.169282615715	-253.54768496930734	3512.89900796447	740.4129263056354	-44.111872006901294	3746.9196914743584	654.6080958765494	199.77298928251528	3707.4117362620873	565.9774312497641	342.9431229036626	3559.024220547478	638.567078244974	396.38007266963893	3502.086792031896	706.9522509341413	428.49979646357093	3518.496703250706	725.3905010138739	455.6798802287252	3509.0412882351957	719.2106773409745	-35.675603670540234	3635.5344843606827	971.3464807024095	221.53426064527392	3535.6411806627666	948.5228452113854	369.1146954705206	3480.699301759569	753.7804409078126	389.91311605598827	3487.277261325327	654.360640759305	445.5977705608927	3538.838252966915	678.5353997735658	467.09922027903576	3511.4996343627977	719.2566695455054
369	6.15	452.4098519295284	3683.118763078772	663.7376869316712	845.8815784016482	3702.323199223318	650.8152357444213	1207.7530460250082	3725.5634962802656	690.0182078741619	1297.068080559478	3660.4828634652395	661.8573630777445	1293.7202037152101	3714.439828027956	613.7739147722683	1268.0909368966022	3784.038133113974	743.3631987295308	464.912447609168	3644.205917522367	882.05531605747	862.0630616914568	3640.6784288328527	869.0277210533128	1233.5290747092613	3679.4077189300788	855.4945098255029	1309.994172164275	3562.703109923603	811.950966021069	1282.9488647578517	3537.456876499561	844.464930852032	1271.2069123652204	3730.5599410765435	865.8521832700795	-129.79598297642096	3658.3658186283033	797.745573912351	-389.41523182752235	3606.592998875334	767.8957588039657	-253.57231826427838	3513.182061925152	740.5165534848559	-44.03024906675153	3746.8465411814045	654.6406380201948	194.80590490450007	3703.505566745254	564.5314955575351	342.95417971561824	3558.771211154683	638.4813959803528	396.41594678358854	3502.035723136003	706.9518230662989	428.12773243727975	3517.98432331757	725.3008806351052	451.0515850983277	3507.223732886852	718.1498037615494	-35.651268820330856	3635.5514605843337	971.3648483175914	217.40756242820999	3540.036538441177	951.2417235988933	372.01612908218993	3493.1800867852166	772.2044559226265	392.9791632972053	3503.0716440929673	668.2355778900517	445.29691499218467	3565.8870264485354	687.5425483632798	467.03821060053747	3511.9612903689367	719.4828573927796
370	6.166666666666667	452.35581970925716	3683.033234276015	663.7613068787844	845.7182060989409	3701.861240069827	650.5691918924604	1207.6475906688363	3725.493496200384	689.9364047032568	1297.2625726254003	3659.9848603560094	662.014395877857	1296.0761127699664	3709.14684901655	611.0904936945491	1261.9613864164062	3779.9044204423712	742.2787150431828	464.9223386638527	3646.783404499021	878.156136244687	859.5196107677054	3630.907962964881	864.5361327141205	1233.5521905745502	3679.469580528395	855.5413569940881	1311.2309204734167	3564.968771071794	811.4537699691193	1282.99847976426	3537.416458245747	844.5242549090141	1265.844161388535	3728.83328608806	864.1479224823773	-129.82762234208312	3658.258802588724	797.7433058814349	-389.52735534697575	3606.706611367151	768.0976235639549	-253.63149521237216	3513.2265285500553	740.4777805370231	-44.099739357785	3746.738052343792	654.596099076312	194.78426861749662	3703.4248639416123	564.6054566585257	343.0820575472735	3558.863519595895	638.6386388775684	401.6745187996586	3506.1452212851796	708.5580253319811	428.370261192544	3518.5164803984517	725.4846218343441	450.8530212075915	3507.97502456659	718.490971090655	-35.695609068465366	3635.5012334034277	971.2939629434137	217.2808613835305	3540.3618513105816	951.4677431494474	367.61780494443065	3491.378319668642	771.1364911121782	392.9810699578029	3502.374377961577	667.896868994955	441.98547534402877	3543.4588252892836	681.3164162904786	466.78050311677674	3511.9072941224726	719.5072802745933
371	6.183333333333334	452.43347553505276	3683.2029171272243	663.9412907428245	845.646587054995	3699.1245916325092	654.931931557047	1207.7029387201876	3725.6867941919313	690.0892129564953	1289.2427398045413	3645.268173030688	648.475548412464	1293.332013170006	3712.5051500883833	617.8734938344703	1262.3356284544554	3779.8737660599145	742.2820718279636	465.0696832942328	3646.906117948199	878.2363172169299	859.6301755962064	3631.224003925178	864.6449105751855	1226.8991683505121	3675.1208028466863	854.1466807962432	1310.263595926195	3563.2954486671674	812.256354320908	1282.6751188424682	3537.164247549929	844.3995338588774	1259.0441162388602	3724.3427929706545	862.8607093415656	-130.08273087253733	3642.2122164034113	783.3548969554976	-389.58742475717276	3606.7339361098193	768.1328201383824	-253.62504514588286	3513.263570374027	740.6471579931962	-44.07203897838567	3746.555693718899	654.4821018982558	194.76617461924857	3703.4535113592756	564.6643329852624	342.84384367156633	3558.6496010516403	638.3918457211297	396.3612263136666	3502.3781761248797	707.2991654496898	426.1220670248257	3532.465682705371	738.40670129537	450.33541815926714	3508.4756693440277	718.5256133171514	-35.637664867059065	3635.740576272838	971.5290333953722	217.28082566559206	3540.253457164767	951.413945424588	367.5420660371583	3491.742272636111	771.3948713663123	392.86070075845095	3499.4294063410875	671.6899223165206	438.3980434837806	3547.135673679563	683.5310966809215	466.96358028859646	3511.9154831873084	724.3353792081103
